<svg xmlns="http://www.w3.org/2000/svg" xmlns:xlink="http://www.w3.org/1999/xlink" height="736" width="2493.3" viewBox="0 0 2337.5 690"><defs><pattern id="d" xlink:href="#a" patternTransform="rotate(42.8 -7376 7298) scale(10)"/><pattern id="a" xlink:href="#b" patternTransform="rotate(42.8 -3517 1047) scale(10)"/><pattern id="b" xlink:href="#c" patternTransform="matrix(10 0 0 10 -912.8 4928.7)"/><pattern id="c" height="1" width="3" patternUnits="userSpaceOnUse" patternTransform="scale(10)"><path fill="currentColor" d="M0-.5h1v2H0z"/></pattern></defs><path d="M16 167.8v320h2320v-320H16zM85 245h2160v160H85V245z" fill="url(#d)"/><path fill="none" stroke="currentColor" stroke-width="10" stroke-linecap="round" stroke-linejoin="round" d="M12.5 172.5h2320v320H12.5z"/><path fill="none" stroke="currentColor" stroke-width="10" stroke-linecap="round" stroke-linejoin="round" d="M5 5h2160v680H5z"/><g fill="currentColor"><path d="M803.8 308h8l8.6 39.8 7-25.4h6.9l7.1 25.4L850 308h8l-11.5 49.2h-7.8l-7.8-27-7.9 27h-7.7L803.8 308zm68 .1h20.7v42.8h16v6.2h-40.1V351h16v-36.5h-12.6V308zm12.6-19.1h8.1v10.2h-8V289zm65.4 25.3v-25.4h8v68.3h-8V351q-2 3.7-5.4 5.6-3.3 2-7.7 2-9 0-14.1-7t-5.1-19.1q0-12 5.1-18.8 5.2-6.9 14-6.9 4.5 0 7.9 2 3.4 1.9 5.3 5.5zM926 332.7q0 9.4 3 14.2 3 4.8 8.8 4.8 5.9 0 9-4.9 3-4.8 3-14.1 0-9.4-3-14.2-3.1-4.8-9-4.8-5.8 0-8.8 4.8-3 4.8-3 14.2zm67.2-38.7v14h18.4v6.3h-18.4V341q0 5.4 2 7.6 2.1 2.1 7.3 2.1h9v6.5h-9.8q-9.1 0-12.9-3.7-3.7-3.6-3.7-12.5v-26.7H972V308h13v-14h8.1zm73.3 32.7v30.5h-8.1v-30.5q0-6.6-2.4-9.8-2.3-3-7.3-3-5.6 0-8.7 4-3 4-3 11.5v27.8h-8.1v-68.4h8v26.6q2.2-4.3 6-6.4 3.6-2.2 8.7-2.2 7.5 0 11.2 5 3.7 4.9 3.7 14.9zm26.8-18.7h13.7v15.9h-13.7V308zm0 33.2h13.7v16h-13.7v-16zm101.3 8.6h13.8v-49.6l-16.5 8v-8.5l16.4-7.9h8.9v58h13.6v7.4h-36.2v-7.4zm69.4-59.2q10.5 0 15.9 8.6 5.4 8.5 5.4 25.3t-5.4 25.4q-5.4 8.6-15.9 8.6t-15.9-8.6q-5.3-8.6-5.3-25.4 0-16.8 5.3-25.3 5.4-8.6 15.9-8.6zm0 60.8q6.2 0 9.3-6.6 3-6.7 3-20.3 0-7.2-.8-13l-21 32.7q3.3 7.2 9.5 7.2zm0-53.8q-6.2 0-9.3 6.7-3 6.6-3 20.2 0 6.2.8 11.6l20.5-32.6q-3.3-5.9-9-5.9zm54.1-7q10.5 0 15.9 8.6 5.4 8.5 5.4 25.3T1334 350q-5.4 8.6-15.9 8.6t-15.9-8.6q-5.3-8.6-5.3-25.4 0-16.8 5.3-25.3 5.4-8.6 15.9-8.6zm0 60.8q6.2 0 9.3-6.6 3-6.7 3-20.3 0-7.2-.8-13l-21 32.7q3.3 7.2 9.5 7.2zm0-53.8q-6.2 0-9.3 6.7-3 6.6-3 20.2 0 6.2.8 11.6l20.5-32.6q-3.3-5.9-9-5.9z"/><text style="line-height:125%" x="-1770.7" y="-3438.8" font-weight="400" font-size="99.8" font-family="sans-serif" letter-spacing="0" word-spacing="0" fill="#000" transform="translate(3122.3 3798.7)"><tspan x="-1770.7" y="-3438.8" style="-inkscape-font-specification:Menlo" font-family="Menlo">%</tspan></text></g></svg>